<?xml version="1.0" encoding="utf-8"?>
<svg version="1.1" id="Layer_1" xmlns="http://www.w3.org/2000/svg" x="0px" y="0px" viewBox="0 0 1206.3 108.7" style="enable-background:new 0 0 1206.3 108.7;">
  <style type="text/css">
	.st0{fill:#AC2E4C;}
	.st1{fill:#C23052;}
	.st2{fill:#D13256;}
</style>
  <path class="st0" d="M1206.3,0.2c-45.6,9.3-86.1,12-120.7,11.6c-51.4-0.6-62.2-7.5-120.6-8.7c-40.2-0.8-80.4,5-120.6,6.3 c-40.3,1.3-80.4-2.3-120.6-5.2c-53.4-3.9-80.2-3.9-82.5-3.9c-23,0-38.8-0.1-39.6-0.1c-33.5-0.1-137,18.4-214.4,11.8 c-25.8-2.2-49.2-4.4-49.2-4.4c-10.2-1.4-26.2-3.5-46-4.8c-74-4.8-112.9,6.4-171.3,8.1C92.8,11.7,51.4,10.6,0,0.3 c0,36.1,0.1,72.3,0.1,108.4h20.1c20.2,0,60.3,0,100.6,0s80.4,0,120.6,0c40.3,0,80.4,0,120.6,0c40.3,0,80.4,0,120.6,0 c40.3,0,80.4,0,120.6,0c40.3,0,80.4,0,120.6,0c40.2,0,80.4,0,120.6,0s80.4,0,120.6,0c40.2,0,80.4,0,120.6,0s80.4,0,100.6,0h20.1 C1206.3,72.5,1206.3,36.3,1206.3,0.2z" style="fill: rgb(65, 74, 174);"/>
  <path class="st0" d="M1206.3,18.3l-20.1-1.8c-20.2-1.7-60.3-5.2-100.6-1.4c-40.3,3.8-80.4,15-120.6,16.6s-80.4-6.4-120.6-6.8 c-40.3-0.3-80.4,7-120.6,6.5c-40.3-0.5-80.4-8.9-120.6-13.9c-13.3-1.7-60.2-4-120.6-0.8C429,19.5,426,23.9,362.3,28 c-33.6,2.2-65.2,4.2-106.1,2.8c-63.4-2.2-78.7-10.3-135.4-12.2c-43.3-1.4-78.4,1.8-100.6,4.6L0.1,25.6v83h20.1 c20.2,0,60.3,0,100.6,0s80.4,0,120.6,0c40.3,0,80.4,0,120.6,0c40.3,0,80.4,0,120.6,0c40.3,0,80.4,0,120.6,0c40.3,0,80.4,0,120.6,0 c40.2,0,80.4,0,120.6,0s80.4,0,120.6,0c40.2,0,80.4,0,120.6,0s80.4,0,100.6,0h20.1L1206.3,18.3L1206.3,18.3z" style="fill: rgb(65, 74, 174);"/>
  <path class="st1" d="M1206.3,49.4l-20.1-1.8c-20.2-1.7-60.3-5.2-100.6-7.5c-40.3-2.3-80.4-3.4-120.6-6.5 c-40.3-3.1-80.4-8.4-120.6-10.7c-40.3-2.2-80.4-1.6-120.6,0.9c-40.3,2.4-80.4,6.6-120.6,11c-40.3,4.3-80.4,8.9-120.6,7.5 c-40.3-1.4-80.4-8.7-120.6-11.5c-40.3-2.7-80.4-1-120.6,2.8c-40.3,3.9-80.4,9.8-120.6,11.3c-40.3,1.6-80.4-1.2-100.6-2.6L0.1,40.9 v54.7h20.1c20.2,0,60.3,0,100.6,0s80.4,0,120.6,0c40.3,0,80.4,0,120.6,0c40.3,0,80.4,0,120.6,0c40.3,0,80.4,0,120.6,0 c40.3,0,80.4,0,120.6,0c40.2,0,80.4,0,120.6,0s80.4,0,120.6,0c40.2,0,80.4,0,120.6,0s80.4,0,100.6,0h20.1L1206.3,49.4L1206.3,49.4z" style="fill: rgb(88, 101, 242);"/>
  <path class="st2" d="M1206.3,68.3l-20.1,2.9c-20.2,2.9-60.3,8.6-100.6,8.4c-40.3-0.3-80.4-6.6-120.6-8c-40.3-1.4-80.4,2.2-120.6,4.9 c-40.3,2.7-80.4,4.7-120.6,3.5c-40.3-1.1-80.4-5.2-120.6-6.9c-40.3-1.7-80.4-1.2-120.6,0.2c-40.3,1.4-80.4,3.5-120.6,3.9 c-40.3,0.4-80.4-0.9-120.6-1.6C201.1,75,161,75,120.8,73.5C80.5,71.9,40.4,69,20.2,67.4L0.1,65.9v42.7h20.1c20.2,0,60.3,0,100.6,0 s80.4,0,120.6,0c40.3,0,80.4,0,120.6,0c40.3,0,80.4,0,120.6,0c40.3,0,80.4,0,120.6,0c40.3,0,80.4,0,120.6,0c40.2,0,80.4,0,120.6,0 s80.4,0,120.6,0c40.2,0,80.4,0,120.6,0s80.4,0,100.6,0h20.1L1206.3,68.3L1206.3,68.3z" style="fill: rgb(104, 117, 253);"/>
</svg>